<svg xmlns="http://www.w3.org/2000/svg" id="a" viewBox="0 0 105 122.5"><defs><style>.c{fill:rgba(113,156,63,.5)}</style></defs><path d="m52.5 122.5-27.02-14.41A48.029 48.029 0 0 1 0 65.62V8.75C0 3.92 3.92 0 8.75 0h87.5c4.83 0 8.75 3.92 8.75 8.75v56.87a48.04 48.04 0 0 1-25.48 42.47L52.5 122.5Z" class="c"/><path d="M8.75 8.75v56.87a39.34 39.34 0 0 0 20.85 34.75l22.9 12.21 22.9-12.21a39.29 39.29 0 0 0 20.85-34.75V8.75H8.75Z" class="c"/><path d="M43.75 63.83 32.42 52.5l-6.17 6.17 17.5 17.5 35-35L72.58 35 43.75 63.83Z" style="fill:#fff"/></svg>