<svg xmlns="http://www.w3.org/2000/svg" viewBox="0 0 63 59"><g fill="none" fill-rule="evenodd"><path fill="#1EBC61" d="M31.485 2.22l16.4 9.47a10 10 0 0 1 5 8.66v18.937a10 10 0 0 1-5 8.66l-16.4 9.47a10 10 0 0 1-10 0l-16.4-9.47a10 10 0 0 1-5-8.66V20.35a10 10 0 0 1 5-8.66l16.4-9.469a10 10 0 0 1 10 0z"/><g fill="#FFF" transform="translate(15.053 20.292)"><rect width="24.327" height="3.436" rx="1.718"/><path d="M1.718 8.543h14.909a1.718 1.718 0 1 1 0 3.436H1.717a1.718 1.718 0 1 1 0-3.436z"/><rect width="24.327" height="3.436" y="17.085" rx="1.718"/></g><g transform="translate(41.727 5.05)"><circle cx="10.003" cy="10.003" r="10.003" fill="#1EBC61" stroke="#FFF" stroke-width="2"/><path fill="#FFF" d="M13.338 11.548c0 .534-.095.995-.283 1.385-.189.39-.441.711-.757.965a3.273 3.273 0 0 1-1.077.573c-.402.127-.816.19-1.242.19-.394 0-.77-.05-1.126-.153a3.608 3.608 0 0 1-.972-.437 2.956 2.956 0 0 1-.751-.695 2.779 2.779 0 0 1-.461-.93l1.882-.578c.09.304.26.554.51.75a1.4 1.4 0 0 0 .893.296c.353 0 .658-.107.917-.32.258-.213.387-.529.387-.947 0-.255-.053-.468-.16-.64a1.238 1.238 0 0 0-.412-.412 1.708 1.708 0 0 0-.572-.216 3.381 3.381 0 0 0-.64-.061c-.312 0-.666.035-1.064.104-.398.07-.753.162-1.065.277l.21-4.983h5.34v1.772H9.388l-.074 1.378a2.64 2.64 0 0 1 .437-.068c.16-.012.305-.018.437-.018.434 0 .845.057 1.23.172.386.115.72.29 1.003.523.283.234.507.523.67.867.165.345.247.747.247 1.206z"/></g></g></svg>